<svg width="29" height="29" viewBox="0 0 29 29" fill="none" xmlns="http://www.w3.org/2000/svg">
<path d="M7.13904 4.49514L9.16383 2.6261C9.54689 2.27251 10.1373 2.27251 10.5204 2.6261L14.5198 6.31783C14.9487 6.71379 14.9487 7.39147 14.5198 7.78744L11.9241 10.1834C11.5044 10.5709 11.401 11.1937 11.673 11.696C13.1495 14.4218 15.4683 16.5967 18.283 17.8958L18.607 18.0453C19.0998 18.2728 19.6811 18.1811 20.0799 17.8129L22.848 15.2577C23.2311 14.9041 23.8215 14.9041 24.2046 15.2577L28.204 18.9494C28.6329 19.3454 28.6329 20.0231 28.204 20.419L25.6903 22.7393C23.6258 24.645 20.5154 24.8629 18.2054 23.2636L13.9037 20.2856C12.1173 19.0488 10.5151 17.5651 9.14493 15.8788L6.55203 12.6875C4.55507 10.2297 4.81206 6.64312 7.13904 4.49514Z" fill="#222222"/>
</svg>
