<svg width="33" height="38" viewBox="0 0 33 38" fill="none" xmlns="http://www.w3.org/2000/svg">
<g filter="url(#filter0_d_4_282)">
<path fill-rule="evenodd" clip-rule="evenodd" d="M16.9015 24.5552C18.7234 23.6324 26.125 19.4481 26.125 12.375C26.125 7.05926 21.8157 2.75 16.5 2.75C11.1843 2.75 6.875 7.05926 6.875 12.375C6.875 19.4481 14.2766 23.6324 16.0985 24.5552C16.3526 24.6839 16.6474 24.6839 16.9015 24.5552ZM16.5 16.5C18.7782 16.5 20.625 14.6532 20.625 12.375C20.625 10.0968 18.7782 8.25 16.5 8.25C14.2218 8.25 12.375 10.0968 12.375 12.375C12.375 14.6532 14.2218 16.5 16.5 16.5Z" fill="#F2F2F2"/>
<path d="M24.8355 22.6875C25.6803 23.3146 26.125 24.0259 26.125 24.75C26.125 25.4741 25.6803 26.1854 24.8355 26.8125C23.9907 27.4396 22.7757 27.9603 21.3125 28.3224C19.8493 28.6844 18.1895 28.875 16.5 28.875C14.8105 28.875 13.1507 28.6844 11.6875 28.3224C10.2243 27.9603 9.00928 27.4396 8.16451 26.8125C7.31974 26.1854 6.875 25.4741 6.875 24.75C6.875 24.0259 7.31974 23.3146 8.16451 22.6875" stroke="#F2F2F2" stroke-width="2" stroke-linecap="round"/>
</g>
<defs>
<filter id="filter0_d_4_282" x="-4" y="0" width="41" height="41" filterUnits="userSpaceOnUse" color-interpolation-filters="sRGB">
<feFlood flood-opacity="0" result="BackgroundImageFix"/>
<feColorMatrix in="SourceAlpha" type="matrix" values="0 0 0 0 0 0 0 0 0 0 0 0 0 0 0 0 0 0 127 0" result="hardAlpha"/>
<feOffset dy="4"/>
<feGaussianBlur stdDeviation="2"/>
<feComposite in2="hardAlpha" operator="out"/>
<feColorMatrix type="matrix" values="0 0 0 0 0 0 0 0 0 0 0 0 0 0 0 0 0 0 0.25 0"/>
<feBlend mode="normal" in2="BackgroundImageFix" result="effect1_dropShadow_4_282"/>
<feBlend mode="normal" in="SourceGraphic" in2="effect1_dropShadow_4_282" result="shape"/>
</filter>
</defs>
</svg>
